<svg width="20" height="20" viewBox="0 0 20 20" fill="none" xmlns="http://www.w3.org/2000/svg">
<path d="M6.66667 20H2.22222C1 20 0 19 0 17.7778V2.22222C0 1 1 0 2.22222 0H6.66667C7.88889 0 8.88889 1 8.88889 2.22222V17.7778C8.88889 19 7.88889 20 6.66667 20ZM13.3333 20H17.7778C19 20 20 19 20 17.7778V12.2222C20 11 19 10 17.7778 10H13.3333C12.1111 10 11.1111 11 11.1111 12.2222V17.7778C11.1111 19 12.1111 20 13.3333 20ZM20 5.55556V2.22222C20 1 19 0 17.7778 0H13.3333C12.1111 0 11.1111 1 11.1111 2.22222V5.55556C11.1111 6.77778 12.1111 7.77778 13.3333 7.77778H17.7778C19 7.77778 20 6.77778 20 5.55556Z" fill="#8EB6D9"/>
</svg>
