<svg width="27" height="26" viewBox="0 0 27 26" fill="none" xmlns="http://www.w3.org/2000/svg">
<path d="M18.5 0V1.406C17.6801 1.54679 16.9016 1.8671 16.22 2.344L15.188 1.374L13.813 2.844L14.813 3.781C14.3555 4.44769 14.0462 5.20469 13.906 6.001H12.5V8.001H13.906C14.052 8.831 14.38 9.587 14.844 10.251L13.781 11.281L15.221 12.721L16.251 11.657C16.915 12.121 17.671 12.449 18.501 12.595V14H20.501V12.594C21.2972 12.4541 22.0542 12.1452 22.721 11.688L23.657 12.688L25.127 11.312L24.157 10.282C24.627 9.612 24.947 8.837 25.095 8H26.5V6H25.094C24.95 5.1903 24.6298 4.42217 24.156 3.75L25.094 2.812L23.687 1.406L22.75 2.344C22.0778 1.87017 21.3097 1.54994 20.5 1.406V0H18.5ZM19.5 3.313C19.9851 3.30981 20.466 3.403 20.9149 3.58714C21.3637 3.77129 21.7715 4.04274 22.1145 4.38573C22.4576 4.72872 22.7292 5.13643 22.9135 5.58521C23.0977 6.03398 23.191 6.51488 23.188 7C23.188 9.055 21.555 10.688 19.5 10.688C17.445 10.688 15.812 9.055 15.812 7C15.812 4.945 17.445 3.312 19.5 3.312V3.313ZM6.52998 9.218L4.68798 9.968L5.40598 11.778C4.45021 12.35 3.64621 13.1437 3.06198 14.092L1.28198 13.372L0.531982 15.217L2.31198 15.935C2.1715 16.4759 2.09828 17.0321 2.09398 17.591C2.09398 18.161 2.17898 18.717 2.31198 19.247L0.531982 19.967L1.28198 21.81L3.06198 21.09C3.64088 22.0507 4.44549 22.8557 5.40598 23.435L4.68598 25.215L6.53098 25.965L7.25098 24.185C7.79185 24.3258 8.34809 24.3991 8.90698 24.403C9.47698 24.403 10.035 24.318 10.563 24.185L11.283 25.965L13.126 25.215L12.406 23.435C13.355 22.8516 14.1489 22.0474 14.72 21.091L16.53 21.809L17.28 19.966L15.47 19.246C15.6 18.716 15.688 18.159 15.688 17.59C15.688 17.02 15.601 16.462 15.468 15.933L17.281 15.215L16.531 13.37L14.721 14.09C14.1466 13.1441 13.3529 12.3504 12.407 11.776L13.127 9.966L11.282 9.216L10.565 11.026C10.0236 10.8864 9.46709 10.8135 8.90798 10.809C8.33798 10.809 7.78198 10.895 7.25198 11.027L6.53198 9.217L6.52998 9.218ZM8.90598 12.81C11.569 12.81 13.686 14.93 13.686 17.592C13.688 20.255 11.569 22.404 8.90598 22.404C8.27384 22.4048 7.64775 22.2809 7.06358 22.0393C6.4794 21.7978 5.94862 21.4434 5.50162 20.9964C5.05463 20.5494 4.70021 20.0186 4.45867 19.4344C4.21712 18.8502 4.09319 18.2241 4.09398 17.592C4.09398 14.929 6.24398 12.81 8.90598 12.81Z" fill="#fff"/>
</svg>
