<svg width="12" height="12" viewBox="0 0 12 12" fill="none" xmlns="http://www.w3.org/2000/svg">
<path d="M2.1855 9.6C2.2155 9.6 2.2455 9.597 2.2755 9.5925L4.7985 9.15C4.8285 9.144 4.857 9.1305 4.878 9.108L11.2365 2.7495C11.2504 2.73562 11.2614 2.71914 11.269 2.70099C11.2765 2.68285 11.2804 2.6634 11.2804 2.64375C11.2804 2.6241 11.2765 2.60465 11.269 2.58651C11.2614 2.56836 11.2504 2.55188 11.2365 2.538L8.7435 0.0435C8.715 0.015 8.6775 0 8.637 0C8.5965 0 8.559 0.015 8.5305 0.0435L2.172 6.402C2.1495 6.4245 2.136 6.4515 2.13 6.4815L1.6875 9.0045C1.67291 9.08486 1.67812 9.16756 1.70269 9.24545C1.72726 9.32333 1.77044 9.39406 1.8285 9.4515C1.9275 9.5475 2.052 9.6 2.1855 9.6ZM3.1965 6.984L8.637 1.545L9.7365 2.6445L4.296 8.0835L2.9625 8.319L3.1965 6.984ZM11.52 10.86H0.48C0.2145 10.86 0 11.0745 0 11.34V11.88C0 11.946 0.054 12 0.12 12H11.88C11.946 12 12 11.946 12 11.88V11.34C12 11.0745 11.7855 10.86 11.52 10.86Z" fill="white"/>
</svg>
