<svg width="24" height="18" viewBox="0 0 24 18" fill="none" xmlns="http://www.w3.org/2000/svg">
<path d="M20.7273 17.4545H3.27273C1.46836 17.4545 0 15.9862 0 14.1818V3.27273C0 1.46836 1.46836 0 3.27273 0H20.7273C22.5316 0 24 1.46836 24 3.27273V14.1818C24 15.9862 22.5316 17.4545 20.7273 17.4545ZM3.27273 2.18182C2.67164 2.18182 2.18182 2.67164 2.18182 3.27273V14.1818C2.18182 14.7829 2.67164 15.2727 3.27273 15.2727H20.7273C21.3284 15.2727 21.8182 14.7829 21.8182 14.1818V3.27273C21.8182 2.67164 21.3284 2.18182 20.7273 2.18182H3.27273ZM9.81818 12H5.45455C5.16522 12 4.88774 11.8851 4.68316 11.6805C4.47857 11.4759 4.36364 11.1984 4.36364 10.9091C4.36364 10.6198 4.47857 10.3423 4.68316 10.1377C4.88774 9.93312 5.16522 9.81818 5.45455 9.81818H9.81818C10.1075 9.81818 10.385 9.93312 10.5896 10.1377C10.7942 10.3423 10.9091 10.6198 10.9091 10.9091C10.9091 11.1984 10.7942 11.4759 10.5896 11.6805C10.385 11.8851 10.1075 12 9.81818 12ZM9.81818 7.63636H5.45455C5.16522 7.63636 4.88774 7.52143 4.68316 7.31684C4.47857 7.11226 4.36364 6.83478 4.36364 6.54545C4.36364 6.25613 4.47857 5.97865 4.68316 5.77407C4.88774 5.56948 5.16522 5.45455 5.45455 5.45455H9.81818C10.1075 5.45455 10.385 5.56948 10.5896 5.77407C10.7942 5.97865 10.9091 6.25613 10.9091 6.54545C10.9091 6.83478 10.7942 7.11226 10.5896 7.31684C10.385 7.52143 10.1075 7.63636 9.81818 7.63636Z" fill="#085588"/>
<path d="M16.3635 9.27272C17.5684 9.27272 18.5453 8.29589 18.5453 7.09091C18.5453 5.88592 17.5684 4.90909 16.3635 4.90909C15.1585 4.90909 14.1816 5.88592 14.1816 7.09091C14.1816 8.29589 15.1585 9.27272 16.3635 9.27272Z" fill="#085588"/>
<path d="M16.364 10.2066C14.66 10.2066 13.6367 10.9866 13.6367 11.7655C13.6367 12.1549 14.66 12.5455 16.364 12.5455C17.9633 12.5455 19.0913 12.156 19.0913 11.7655C19.0913 10.9866 18.0222 10.2066 16.364 10.2066Z" fill="#085588"/>
</svg>
