<svg width="14" height="13" viewBox="0 0 14 13" fill="none" xmlns="http://www.w3.org/2000/svg">
<path d="M13.4831 2.25174L11.4311 0.200474C11.3677 0.136814 11.2923 0.0863273 11.2093 0.0519216C11.1262 0.0175159 11.0372 -0.000129623 10.9474 7.16829e-07H2.73684C2.64698 -0.000129623 2.55797 0.0175159 2.47495 0.0519216C2.39193 0.0863273 2.31654 0.136814 2.25311 0.200474L0.20116 2.25174C0.137232 2.31515 0.0865324 2.39062 0.0520013 2.47378C0.0174701 2.55693 -0.00020481 2.64612 1.79047e-06 2.73616V11.6316C1.79047e-06 12.3863 0.613739 13 1.36842 13H12.3158C13.0705 13 13.6842 12.3863 13.6842 11.6316V2.73616C13.6844 2.64612 13.6667 2.55693 13.6322 2.47378C13.5977 2.39062 13.547 2.31515 13.4831 2.25174ZM3.02011 1.36842H10.6641L11.3476 2.05195H2.33658L3.02011 1.36842ZM1.36842 11.6316V3.42037H12.3158L12.3172 11.6316H1.36842Z" fill="#DB7570"/>
<path d="M8.89556 6.84205H4.7903V5.47363H3.42188V8.21047H10.264V5.47363H8.89556V6.84205Z" fill="#DB7570"/>
</svg>
