<svg width="15" height="15" viewBox="0 0 15 15" fill="none" xmlns="http://www.w3.org/2000/svg">
<path d="M10.5386 2.8413L12.1582 4.4602M11.5801 1.41511L7.20061 5.79462C6.97432 6.02059 6.81999 6.3085 6.75707 6.62204L6.35254 8.647L8.3775 8.24171C8.69103 8.179 8.97857 8.02529 9.20492 7.79894L13.5844 3.41942C13.716 3.28782 13.8204 3.13158 13.8917 2.95963C13.9629 2.78768 13.9995 2.60338 13.9995 2.41726C13.9995 2.23115 13.9629 2.04685 13.8917 1.8749C13.8204 1.70295 13.716 1.54671 13.5844 1.41511C13.4528 1.2835 13.2966 1.17911 13.1246 1.10788C12.9527 1.03666 12.7684 1 12.5823 1C12.3962 1 12.2119 1.03666 12.0399 1.10788C11.868 1.17911 11.7117 1.2835 11.5801 1.41511V1.41511Z" stroke="#1E87C8" stroke-linecap="round" stroke-linejoin="round"/>
<path d="M12.4707 10.1764V12.4706C12.4707 12.8762 12.3096 13.2652 12.0227 13.552C11.7359 13.8389 11.3469 14 10.9413 14H2.52943C2.1238 14 1.73478 13.8389 1.44796 13.552C1.16114 13.2652 1 12.8762 1 12.4706V4.05872C1 3.65309 1.16114 3.26408 1.44796 2.97726C1.73478 2.69043 2.1238 2.5293 2.52943 2.5293H4.82357" stroke="#1E87C8" stroke-linecap="round" stroke-linejoin="round"/>
</svg>
