<svg width="26" height="26" viewBox="0 0 26 26" fill="none" xmlns="http://www.w3.org/2000/svg">
<path d="M17.968 0V1.406C17.1482 1.54679 16.3696 1.8671 15.688 2.344L14.656 1.374L13.281 2.844L14.281 3.781C13.8235 4.44769 13.5142 5.20469 13.374 6.001H11.968V8.001H13.374C13.52 8.831 13.848 9.587 14.312 10.251L13.249 11.281L14.689 12.721L15.719 11.657C16.383 12.121 17.139 12.449 17.969 12.595V14H19.969V12.594C20.7652 12.4541 21.5222 12.1452 22.189 11.688L23.125 12.688L24.595 11.312L23.625 10.282C24.095 9.612 24.415 8.837 24.563 8H25.968V6H24.562C24.4181 5.1903 24.0978 4.42217 23.624 3.75L24.562 2.812L23.155 1.406L22.218 2.344C21.5458 1.87017 20.7777 1.54994 19.968 1.406V0H17.968ZM18.968 3.313C19.4531 3.30981 19.934 3.403 20.3829 3.58714C20.8317 3.77129 21.2395 4.04274 21.5826 4.38573C21.9256 4.72872 22.1972 5.13643 22.3815 5.58521C22.5657 6.03398 22.6591 6.51488 22.656 7C22.656 9.055 21.023 10.688 18.968 10.688C16.913 10.688 15.28 9.055 15.28 7C15.28 4.945 16.913 3.312 18.968 3.312V3.313ZM5.998 9.218L4.156 9.968L4.874 11.778C3.91822 12.35 3.11423 13.1437 2.53 14.092L0.75 13.372L0 15.217L1.78 15.935C1.63952 16.4759 1.5663 17.0321 1.562 17.591C1.562 18.161 1.647 18.717 1.78 19.247L0 19.967L0.75 21.81L2.53 21.09C3.1089 22.0507 3.91351 22.8557 4.874 23.435L4.154 25.215L5.999 25.965L6.719 24.185C7.25987 24.3258 7.81611 24.3991 8.375 24.403C8.945 24.403 9.503 24.318 10.031 24.185L10.751 25.965L12.594 25.215L11.874 23.435C12.823 22.8516 13.6169 22.0474 14.188 21.091L15.998 21.809L16.748 19.966L14.938 19.246C15.068 18.716 15.156 18.159 15.156 17.59C15.156 17.02 15.069 16.462 14.936 15.933L16.749 15.215L15.999 13.37L14.189 14.09C13.6146 13.1441 12.8209 12.3504 11.875 11.776L12.595 9.966L10.75 9.216L10.033 11.026C9.49157 10.8864 8.93511 10.8135 8.376 10.809C7.806 10.809 7.25 10.895 6.72 11.027L6 9.217L5.998 9.218ZM8.374 12.81C11.037 12.81 13.154 14.93 13.154 17.592C13.156 20.255 11.037 22.404 8.374 22.404C7.74186 22.4048 7.11577 22.2809 6.53159 22.0393C5.94742 21.7978 5.41663 21.4434 4.96964 20.9964C4.52265 20.5494 4.16823 20.0186 3.92668 19.4344C3.68514 18.8502 3.56121 18.2241 3.562 17.592C3.562 14.929 5.712 12.81 8.374 12.81Z" fill="#085588"/>
</svg>
